# xmcd CD database file
#
# Track frame offsets:
#	182
#	12450
#	18162
#	31017
#	40790
#	51957
#	63657
#	73655
#	82897
#	100060
#	108532
#	124410
#	141365
#	154442
#	165202
#	175090
#	195070
#	212710
#	228850
#	244662
#	266475
#
# Disc length: 3698 seconds
#
# Revision: 7
# Processed by: cddbd v1.5.2PL0 Copyright (c) Steve Scherf et al.
# Submitted via: CDex 1.70beta2
#
DISCID=120e7015,310e8015,370e8015
DTITLE=The Nitty Gritty Dirt Band - Will The Circle Be Unbroken – Disc Two
DYEAR=1972
DGENRE=Bluegrass
TTITLE0=Vassar Clements and The Nitty Gritty Dirt Band - Lonesome Fiddle Blues
TTITLE1=Merle Travis and Roy "Junior" Huskey - Cannonball Rag
TTITLE2=Vassar Clements and The Nitty Gritty Dirt Band - Avalanche
TTITLE3=Earl Scruggs and The Nitty Gritty Dirt Band - Flint Hill Special
TTITLE4=The Nitty Gritty Dirt Band - Togary Mountain
TTITLE5=Earl Scruggs and The Nitty Gritty Dirt Band - Earl's Breakdown
TTITLE6=Vassar Clements and The Nitty Gritty Dirt Band - Orange Blossom Special
TTITLE7=Pete "Oswald" Kirby, Doc Watson, Earl Scruggs, Roy "Junior" Huskey and Jimmie Fadden - Wabash Cannonball
TTITLE8=The Nitty Gritty Dirt Band - Lost Highway
TTITLE9=Doc Watson and Merle Travis - First Meeting (Dialogue)
TTITLE10=Doc Watson and The Nitty Gritty Dirt Band - Way Downtown
TTITLE11=Doc Watson and The Nitty Gritty Dirt Band - Down Yonder
TTITLE12=Roy Acuff and The Nitty Gritty Dirt Band - Pins And Needles (In My Heart)
TTITLE13=The Nitty Gritty Dirt Band - Honky Tonk Blues
TTITLE14=Pete "Oswald" Kirby, Doc Watson, Earl Scruggs and Roy "Junior" Huskey - Sailin' On To Hawaii
TTITLE15=Mother Maybelle Carter and The Nitty Gritty Dirt Band - I'm Thinking Tonight Of My Blue Eyes
TTITLE16=Merle Travis and The Nitty Gritty Dirt Band - I Am A Pilgrim
TTITLE17=Mother Maybelle Carter and The Nitty Gritty Dirt Band - Wildwood Flower
TTITLE18=Earl Scruggs, John McEuen and Roy "Junior" Huskey - Soldier's Joy
TTITLE19=Mother Maybelle Carter, Jimmy Martin, Roy Acuff and The Nitty Gritty Dirt Band - Will The Circle Be Unbroken
TTITLE20=Randy Scruggs - Both Sides Now
EXTD=YEAR: 1972
EXTT0=
EXTT1=
EXTT2=
EXTT3=
EXTT4=
EXTT5=
EXTT6=
EXTT7=
EXTT8=
EXTT9=
EXTT10=
EXTT11=
EXTT12=
EXTT13=
EXTT14=
EXTT15=
EXTT16=
EXTT17=
EXTT18=
EXTT19=
EXTT20=
PLAYORDER=
